<svg width="66" height="20" viewBox="0 0 66 20" fill="none" xmlns="http://www.w3.org/2000/svg">
<path d="M18.536 19.6H14.196V4.2H8.064L7.952 6.468C7.76533 10.7613 7.28 13.944 6.496 16.016C5.992 17.3787 5.30133 18.3307 4.424 18.872C3.56533 19.4133 2.38933 19.684 0.896 19.684C0.504 19.684 0.130667 19.656 -0.224 19.6V15.568C0.112 15.6053 0.345333 15.624 0.476 15.624C1.46533 15.624 2.184 15.1667 2.632 14.252C2.912 13.692 3.164 12.6187 3.388 11.032C3.612 9.42667 3.752 6.48667 3.808 2.212L3.836 9.53674e-07H18.536V19.6ZM20.9038 12.292C20.9038 10.052 21.6598 8.232 23.1718 6.832C24.6838 5.432 26.5504 4.732 28.7718 4.732C31.0304 4.732 32.9158 5.44134 34.4278 6.86C35.9398 8.26 36.6958 10.0707 36.6958 12.292C36.6958 14.532 35.9304 16.352 34.3998 17.752C32.8691 19.1333 30.9931 19.824 28.7718 19.824C26.5504 19.824 24.6838 19.1147 23.1718 17.696C21.6598 16.2773 20.9038 14.476 20.9038 12.292ZM25.1038 12.292C25.1038 13.356 25.4491 14.252 26.1398 14.98C26.8491 15.6893 27.7264 16.044 28.7718 16.044C29.8918 16.044 30.7878 15.6987 31.4598 15.008C32.1504 14.3173 32.4958 13.412 32.4958 12.292C32.4958 11.1907 32.1504 10.2853 31.4598 9.576C30.7691 8.86667 29.8731 8.512 28.7718 8.512C27.6704 8.512 26.7838 8.86667 26.1118 9.576C25.4398 10.2853 25.1038 11.1907 25.1038 12.292ZM42.5622 19.6H38.5022V5.04H49.8702V8.82H42.5622V19.6ZM50.0522 12.292C50.0522 10.052 50.8082 8.232 52.3202 6.832C53.8322 5.432 55.6989 4.732 57.9202 4.732C60.1789 4.732 62.0642 5.44134 63.5762 6.86C65.0882 8.26 65.8442 10.0707 65.8442 12.292C65.8442 14.532 65.0789 16.352 63.5482 17.752C62.0175 19.1333 60.1415 19.824 57.9202 19.824C55.6989 19.824 53.8322 19.1147 52.3202 17.696C50.8082 16.2773 50.0522 14.476 50.0522 12.292ZM54.2522 12.292C54.2522 13.356 54.5975 14.252 55.2882 14.98C55.9975 15.6893 56.8749 16.044 57.9202 16.044C59.0402 16.044 59.9362 15.6987 60.6082 15.008C61.2989 14.3173 61.6442 13.412 61.6442 12.292C61.6442 11.1907 61.2989 10.2853 60.6082 9.576C59.9175 8.86667 59.0215 8.512 57.9202 8.512C56.8189 8.512 55.9322 8.86667 55.2602 9.576C54.5882 10.2853 54.2522 11.1907 54.2522 12.292Z" fill="#023047"/>
</svg>
